<mxfile host="app.diagrams.net" modified="2023-07-28T02:37:43.080Z" agent="Mozilla/5.0 (Windows NT 10.0; Win64; x64) AppleWebKit/537.36 (KHTML, like Gecko) Chrome/115.0.0.0 Safari/537.36 Edg/115.0.1901.183" etag="Ll618UXjBRRwSPGIYTEN" version="21.6.2" type="device">
  <diagram name="第 1 页" id="WHywGJLIP8ct8R0bjwMU">
    <mxGraphModel dx="1434" dy="764" grid="1" gridSize="10" guides="1" tooltips="1" connect="1" arrows="1" fold="1" page="1" pageScale="1" pageWidth="827" pageHeight="1169" math="0" shadow="0">
      <root>
        <mxCell id="0" />
        <mxCell id="1" parent="0" />
        <mxCell id="7_GKt7siSIdoluKyupy0-9" style="edgeStyle=orthogonalEdgeStyle;rounded=0;orthogonalLoop=1;jettySize=auto;html=1;entryX=0.5;entryY=0;entryDx=0;entryDy=0;" edge="1" parent="1" source="7_GKt7siSIdoluKyupy0-1" target="7_GKt7siSIdoluKyupy0-2">
          <mxGeometry relative="1" as="geometry" />
        </mxCell>
        <mxCell id="7_GKt7siSIdoluKyupy0-1" value="MyServer.Web.Host" style="rounded=1;whiteSpace=wrap;html=1;fillColor=#d5e8d4;strokeColor=#82b366;" vertex="1" parent="1">
          <mxGeometry x="188" y="260" width="120" height="60" as="geometry" />
        </mxCell>
        <mxCell id="7_GKt7siSIdoluKyupy0-10" style="edgeStyle=orthogonalEdgeStyle;rounded=0;orthogonalLoop=1;jettySize=auto;html=1;" edge="1" parent="1" source="7_GKt7siSIdoluKyupy0-2" target="7_GKt7siSIdoluKyupy0-4">
          <mxGeometry relative="1" as="geometry" />
        </mxCell>
        <mxCell id="7_GKt7siSIdoluKyupy0-2" value="MyServer.Web.Core" style="rounded=1;whiteSpace=wrap;html=1;" vertex="1" parent="1">
          <mxGeometry x="188" y="360" width="120" height="60" as="geometry" />
        </mxCell>
        <mxCell id="7_GKt7siSIdoluKyupy0-16" style="edgeStyle=orthogonalEdgeStyle;rounded=0;orthogonalLoop=1;jettySize=auto;html=1;" edge="1" parent="1" source="7_GKt7siSIdoluKyupy0-3" target="7_GKt7siSIdoluKyupy0-15">
          <mxGeometry relative="1" as="geometry" />
        </mxCell>
        <mxCell id="7_GKt7siSIdoluKyupy0-3" value="MyServer.Core" style="rounded=1;whiteSpace=wrap;html=1;fillColor=#dae8fc;strokeColor=#6c8ebf;" vertex="1" parent="1">
          <mxGeometry x="188" y="550" width="120" height="60" as="geometry" />
        </mxCell>
        <mxCell id="7_GKt7siSIdoluKyupy0-11" style="edgeStyle=orthogonalEdgeStyle;rounded=0;orthogonalLoop=1;jettySize=auto;html=1;entryX=0.5;entryY=0;entryDx=0;entryDy=0;" edge="1" parent="1" source="7_GKt7siSIdoluKyupy0-4" target="7_GKt7siSIdoluKyupy0-3">
          <mxGeometry relative="1" as="geometry" />
        </mxCell>
        <mxCell id="7_GKt7siSIdoluKyupy0-4" value="MyServer.Application" style="rounded=1;whiteSpace=wrap;html=1;fillColor=#dae8fc;strokeColor=#6c8ebf;" vertex="1" parent="1">
          <mxGeometry x="188" y="460" width="120" height="60" as="geometry" />
        </mxCell>
        <mxCell id="7_GKt7siSIdoluKyupy0-5" value="MyServer.&lt;br&gt;DataModel" style="rounded=1;whiteSpace=wrap;html=1;fillColor=#f8cecc;strokeColor=#b85450;" vertex="1" parent="1">
          <mxGeometry x="314" y="260" width="100" height="440" as="geometry" />
        </mxCell>
        <mxCell id="7_GKt7siSIdoluKyupy0-7" value="&lt;h1&gt;MyServer介绍&lt;/h1&gt;&lt;p&gt;1.MyServer.Web.Host:：.Net Core的服务启动入口，用于配置中间件等插件&lt;br&gt;&lt;/p&gt;&lt;p&gt;2.MyServer.Application：服务端API入口以及SignalR消息转发出口&lt;/p&gt;&lt;p&gt;3.MyServer.Core：服务端主要业务承载处&lt;/p&gt;&lt;p&gt;4.MyServer.Web.Core：N/A&lt;/p&gt;&lt;p&gt;5.MyServer.DataModel：实体类，实体缓存层&lt;/p&gt;&lt;p&gt;6.待增设，数据库操作层&lt;/p&gt;" style="text;html=1;strokeColor=none;fillColor=none;spacing=5;spacingTop=-20;whiteSpace=wrap;overflow=hidden;rounded=0;" vertex="1" parent="1">
          <mxGeometry x="20" y="10" width="540" height="270" as="geometry" />
        </mxCell>
        <mxCell id="7_GKt7siSIdoluKyupy0-12" value="Logger" style="rounded=1;whiteSpace=wrap;html=1;fillColor=#fff2cc;strokeColor=#d6b656;" vertex="1" parent="1">
          <mxGeometry x="118" y="260" width="60" height="440" as="geometry" />
        </mxCell>
        <mxCell id="7_GKt7siSIdoluKyupy0-13" value="MyUnity" style="rounded=1;whiteSpace=wrap;html=1;fillColor=#fff2cc;strokeColor=#d6b656;" vertex="1" parent="1">
          <mxGeometry x="44" y="260" width="60" height="440" as="geometry" />
        </mxCell>
        <mxCell id="7_GKt7siSIdoluKyupy0-15" value="MyServer.DataBase" style="rounded=1;whiteSpace=wrap;html=1;" vertex="1" parent="1">
          <mxGeometry x="188" y="640" width="120" height="60" as="geometry" />
        </mxCell>
        <mxCell id="7_GKt7siSIdoluKyupy0-17" value="DataBase" style="rounded=1;whiteSpace=wrap;html=1;" vertex="1" parent="1">
          <mxGeometry x="44" y="710" width="366" height="60" as="geometry" />
        </mxCell>
      </root>
    </mxGraphModel>
  </diagram>
</mxfile>
